<svg width="1200" height="900" viewBox="0 0 1200 900" fill="none" xmlns="http://www.w3.org/2000/svg">
  <rect width="1200" height="900" rx="48" fill="#EEF5F7"/>
  <path d="M300 720C300 470 430 230 600 230C770 230 900 470 900 720H300Z" fill="#11273A"/>
  <path d="M390 690C390 490 480 330 600 330C720 330 810 490 810 690H390Z" fill="#1E3A4C"/>
  <rect x="560" y="250" width="80" height="460" rx="40" fill="#E9C6A6"/>
  <path d="M564 250H636V708H564V250Z" fill="#E4BC98"/>
  <g fill="#FBFCFE">
    <rect x="460" y="370" width="28" height="18" rx="9"/>
    <rect x="510" y="430" width="24" height="16" rx="8"/>
    <rect x="650" y="392" width="26" height="16" rx="8"/>
    <rect x="716" y="470" width="22" height="14" rx="7"/>
    <rect x="540" y="520" width="30" height="18" rx="9"/>
    <rect x="682" y="556" width="22" height="14" rx="7"/>
    <rect x="444" y="560" width="20" height="13" rx="6.5"/>
  </g>
</svg>
